<svg width="577" height="577" viewBox="0 0 577 577" fill="none" xmlns="http://www.w3.org/2000/svg">
<g clip-path="url(#clip0_46_10)">
<path d="M572.121 294.851C557.304 321.729 524.779 331.102 499.409 316.083C480.212 304.718 470.859 282.069 476.092 259.617C481.138 237.964 499.158 223.089 521.513 220.877C547.548 218.299 572.126 236.877 576.187 262.288C577.938 273.245 577.338 284.229 572.121 294.851ZM534.723 249.406C523.229 245.957 513.239 248.369 506.937 256.887C500.829 265.142 499.795 274.283 504.529 283.637C509.136 292.743 518.407 297.274 529.594 296.174C539.694 295.181 547.888 287.219 549.905 276.439C552.002 265.236 546.504 255.063 534.723 249.406Z" fill="#232323"/>
<path d="M297.711 270.974C291.976 257.255 286.321 243.917 280.862 230.498C278.037 223.552 279.569 221.301 287.147 221.403C309.437 221.702 303.888 218.626 311.884 237.412C317.035 249.511 321.721 261.808 326.627 274.012C327.469 276.109 328.368 278.183 329.753 281.491C332.219 275.515 334.263 270.824 336.102 266.055C340.895 253.626 345.741 241.215 350.266 228.688C352.037 223.784 354.623 221.323 360.156 221.857C365.109 222.335 370.144 221.93 375.143 221.962C378.922 221.986 380.264 224.013 379.298 227.514C378.636 229.916 377.754 232.269 376.816 234.58C361.341 272.686 346.934 311.22 330.84 349.078C326.875 358.404 326.782 358.58 316.454 358.556C312.955 358.548 309.449 358.644 305.959 358.449C300.679 358.154 299.122 355.718 301.148 350.855C305.44 340.557 309.765 330.271 314.274 320.067C315.588 317.095 315.626 314.562 314.352 311.537C308.732 298.186 303.344 284.736 297.711 270.974Z" fill="#232323"/>
<path d="M445.998 222.475C450.192 223.831 454.041 224.924 457.77 226.334C461.309 227.672 462.25 230.295 461.256 233.991C457.214 249.022 455.911 249.703 440.934 245.987C433.86 244.232 426.671 242.579 419.256 244.52C415.79 245.427 413.613 247.189 413.503 250.982C413.393 254.787 415.512 257.084 418.894 257.79C426.537 259.385 434.284 260.473 441.94 262.013C456.871 265.017 465.455 274.183 466.682 288.153C467.985 302.993 460.861 314.358 446.592 319.628C427.538 326.665 408.88 323.791 390.597 316.608C385.378 314.558 384.819 312.236 387.01 307.119C393.275 292.494 391.384 291.805 407.681 297.235C415.494 299.838 423.574 302.412 432.123 300.173C436.331 299.071 439.813 297.046 439.9 292.34C439.988 287.568 436.027 285.946 432.232 285.083C424.778 283.389 417.158 282.396 409.739 280.571C395.203 276.996 387.38 267.053 386.598 251.838C385.936 238.94 393.809 227.957 407.198 223.121C419.91 218.529 432.74 219.612 445.998 222.475Z" fill="#232323"/>
<path d="M59.9968 249.626C44.0963 243.878 28.9303 254.25 27.411 267.661C26.3684 276.865 28.2994 285.109 35.4865 291.089C42.6202 297.024 51.3043 298.574 59.8665 294.917C65.4014 292.554 69.1054 293.085 72.8832 297.585C75.4357 300.626 78.6651 303.089 81.4675 305.932C85.0241 309.54 84.8699 311.342 80.5362 314.183C51.8285 333.002 9.1965 321.63 1.21807 281.47C-3.08599 259.806 4.0164 241.649 22.5231 229.442C41.3783 217.005 61.1567 217.857 80.5115 229.146C85.4509 232.027 85.5487 233.734 81.5104 238.01C78.4255 241.278 75.0106 244.248 72.0752 247.638C68.6201 251.628 64.9583 252.86 59.9968 249.626Z" fill="#232323"/>
<path d="M107.811 237.783C104.11 234.239 104.856 231.672 108.606 229.107C125.335 217.664 150.465 217.992 167.531 230.01C184.96 242.283 192.555 264.22 186.862 285.843C181.47 306.328 164.609 320.305 143.195 322.819C130.493 324.311 119.091 321.265 108.388 314.837C103.767 312.062 103.633 310.567 107.193 306.717C110.811 302.804 114.655 299.097 118.236 295.152C121.123 291.971 124.067 292.919 127.275 294.425C141.93 301.303 157.322 292.268 161.029 279.346C163.665 270.157 162.128 261.721 155.266 254.875C148.45 248.073 139.762 245.465 130.934 249.083C123.887 251.972 119.439 250.719 115.095 245.138C113.065 242.53 110.428 240.396 107.811 237.783Z" fill="#232323"/>
<path d="M268.487 225.921C268.53 231.193 268.656 236.025 268.502 240.848C268.323 246.479 265.948 248.648 260.357 248.581C257.363 248.545 254.361 248.215 251.379 248.353C239.031 248.926 230.159 257.125 228.646 269.398C226.847 283.998 228.058 298.667 227.869 313.303C227.762 321.6 227.106 322.416 218.761 322.422C214.932 322.425 211.096 322.476 207.277 322.258C203.363 322.035 201.229 319.921 201.228 315.822C201.222 286.352 201.207 256.882 201.144 227.412C201.135 223.603 202.919 221.946 206.63 222.002C210.126 222.054 213.623 221.992 217.119 221.989C226.333 221.979 226.333 221.981 228.391 230.196C230.487 230.432 231.596 228.678 233.023 227.717C242.008 221.667 252.235 220.618 262.611 220.352C265.775 220.272 267.839 222.242 268.487 225.921Z" fill="#232323"/>
<path d="M109.939 262.085C114.537 269.185 113.799 277.593 108.254 283.335C105.019 286.685 101.612 289.87 98.3823 293.225C96.1054 295.589 93.9889 295.885 91.602 293.404C87.6816 289.328 83.4965 285.492 79.7689 281.25C75.5521 276.452 75.879 266.544 80.2709 261.826C83.8947 257.934 87.8467 254.349 91.5357 250.514C93.925 248.031 96.0184 248.224 98.3312 250.571C102.067 254.363 105.895 258.064 109.939 262.085Z" fill="#E9815C"/>
</g>
<defs>
<clipPath id="clip0_46_10">
<rect width="577" height="577" fill="white"/>
</clipPath>
</defs>
</svg>
